<svg width="229" height="207" xmlns="http://www.w3.org/2000/svg" xmlns:xlink="http://www.w3.org/1999/xlink" overflow="hidden"><defs><clipPath id="clip0"><rect x="1218" y="667" width="229" height="207"/></clipPath><clipPath id="clip1"><path d="M1218.71 783.695 1282.21 667.541 1446.42 757.31 1382.92 873.464Z" fill-rule="evenodd" clip-rule="evenodd"/></clipPath><clipPath id="clip2"><path d="M1218.71 783.695 1282.21 667.541 1446.42 757.31 1382.92 873.464Z" fill-rule="evenodd" clip-rule="evenodd"/></clipPath><clipPath id="clip3"><path d="M1218.71 783.695 1282.21 667.541 1446.42 757.31 1382.92 873.464Z" fill-rule="evenodd" clip-rule="evenodd"/></clipPath></defs><g clip-path="url(#clip0)" transform="translate(-1218 -667)"><g clip-path="url(#clip1)"><g clip-path="url(#clip2)"><g clip-path="url(#clip3)"><path d="M1405.18 829.63 1436.38 772.565 1425.8 766.785 1425.01 766.341 1424.23 765.882 1423.46 765.405 1422.7 764.913 1421.95 764.403 1421.21 763.879 1420.48 763.338 1419.77 762.783 1419.06 762.212 1418.37 761.626 1417.69 761.026 1417.02 760.412 1416.37 759.784 1415.73 759.141 1415.11 758.485 1414.49 757.817 1413.9 757.135 1413.31 756.44 1412.75 755.734 1412.19 755.016 1411.66 754.286 1411.13 753.544 1410.63 752.792 1410.14 752.029 1409.67 751.257 1409.21 750.474 1408.77 749.681 1408.35 748.879 1407.94 748.069 1407.5 747.19 1407.04 746.32 1406.57 745.46 1406.07 744.61 1405.56 743.77 1405.03 742.941 1404.49 742.123 1403.93 741.316 1403.35 740.521 1402.76 739.738 1402.15 738.967 1401.52 738.21 1400.88 737.465 1400.22 736.733 1399.55 736.015 1398.87 735.312 1398.17 734.622 1397.45 733.947 1396.72 733.286 1395.98 732.641 1395.23 732.011 1394.46 731.397 1393.68 730.799 1392.89 730.216 1392.08 729.651 1391.27 729.102 1390.44 728.57 1389.61 728.055 1388.76 727.557 1387.9 727.076 1338.7 700.178 1338.27 699.956 1337.84 699.752 1337.4 699.566 1336.95 699.397 1336.49 699.246 1336.03 699.114 1335.56 699.001 1335.09 698.907 1334.62 698.831 1334.14 698.775 1333.67 698.738 1333.19 698.72 1332.71 698.722 1332.23 698.742 1331.75 698.783 1331.27 698.842 1330.8 698.92 1330.33 699.018 1329.87 699.134 1329.41 699.269 1328.95 699.422 1328.5 699.594 1328.06 699.784 1327.63 699.99 1327.21 700.215 1326.79 700.455 1326.39 700.713 1325.99 700.987 1325.61 701.276 1325.24 701.581 1324.88 701.9 1324.54 702.233 1324.21 702.58 1323.89 702.94 1323.59 703.313 1323.3 703.697 1323.03 704.093 1322.77 704.499 1322.54 704.915 1322.31 705.34 1322.11 705.775 1321.92 706.216 1321.75 706.665 1321.6 707.121 1321.47 707.582 1321.36 708.048 1321.26 708.518 1321.19 708.991 1321.13 709.468 1321.1 709.946 1321.08 710.426 1321.08 710.905 1321.1 711.384 1321.14 711.862 1321.2 712.338 1321.28 712.811 1321.38 713.281 1321.49 713.746 1321.63 714.207 1321.78 714.661 1321.95 715.109 1322.14 715.55 1322.35 715.983 1322.57 716.406 1322.81 716.821 1323.07 717.226 1323.34 717.619 1323.63 718.002 1323.94 718.372 1324.26 718.73 1324.59 719.076 1324.94 719.406 1325.3 719.724 1325.67 720.026 1326.05 720.312 1326.45 720.584 1326.86 720.839 1327.27 721.078 1318.34 716.192 1317.91 715.97 1317.47 715.765 1317.03 715.578 1316.58 715.408 1316.12 715.257 1315.66 715.125 1315.19 715.011 1314.72 714.917 1314.24 714.841 1313.77 714.784 1313.29 714.747 1312.81 714.729 1312.32 714.731 1311.84 714.751 1311.36 714.792 1310.89 714.852 1310.41 714.93 1309.94 715.028 1309.47 715.144 1309.01 715.28 1308.55 715.434 1308.11 715.606 1307.66 715.796 1307.23 716.004 1306.8 716.229 1306.39 716.471 1305.98 716.729 1305.59 717.004 1305.2 717.295 1304.83 717.6 1304.47 717.921 1304.12 718.255 1303.79 718.603 1303.47 718.965 1303.17 719.339 1302.88 719.724 1302.61 720.121 1302.35 720.529 1302.12 720.947 1301.89 721.373 1301.69 721.809 1301.5 722.253 1301.33 722.703 1301.18 723.16 1301.05 723.623 1300.93 724.091 1300.84 724.563 1300.76 725.038 1300.71 725.516 1300.67 725.996 1300.65 726.477 1300.65 726.959 1300.67 727.44 1300.72 727.919 1300.77 728.397 1300.85 728.872 1300.95 729.343 1301.07 729.81 1301.2 730.272 1301.36 730.728 1301.53 731.178 1301.72 731.62 1301.93 732.054 1302.15 732.48 1302.39 732.896 1302.65 733.302 1302.93 733.697 1303.22 734.081 1303.52 734.453 1303.84 734.812 1304.18 735.159 1304.53 735.491 1304.89 735.809 1305.26 736.112 1305.65 736.4 1306.04 736.672 1306.45 736.928 1306.87 737.168 1302.87 734.981 1302.44 734.759 1302.01 734.554 1301.56 734.367 1301.11 734.197 1300.66 734.046 1300.19 733.914 1299.73 733.8 1299.25 733.705 1298.78 733.63 1298.3 733.573 1297.82 733.536 1297.34 733.518 1296.86 733.52 1296.38 733.541 1295.9 733.581 1295.42 733.641 1294.95 733.719 1294.47 733.817 1294.01 733.933 1293.54 734.069 1293.09 734.223 1292.64 734.395 1292.2 734.585 1291.76 734.792 1291.34 735.018 1290.92 735.26 1290.52 735.519 1290.12 735.793 1289.74 736.083 1289.36 736.389 1289 736.709 1288.66 737.044 1288.33 737.392 1288.01 737.754 1287.71 738.127 1287.42 738.513 1287.14 738.91 1286.89 739.318 1286.65 739.735 1286.43 740.162 1286.22 740.598 1286.03 741.041 1285.87 741.492 1285.71 741.949 1285.58 742.412 1285.47 742.879 1285.37 743.352 1285.3 743.827 1285.24 744.305 1285.2 744.785 1285.19 745.266 1285.19 745.747 1285.21 746.228 1285.25 746.708 1285.31 747.185 1285.39 747.66 1285.49 748.132 1285.6 748.599 1285.74 749.061 1285.89 749.517 1286.06 749.966 1286.25 750.409 1286.46 750.843 1286.69 751.268 1286.93 751.685 1287.19 752.091 1287.46 752.486 1287.75 752.87 1288.06 753.242 1288.38 753.601 1288.71 753.947 1289.06 754.28 1289.42 754.598 1289.8 754.901 1290.18 755.189 1290.58 755.461 1290.99 755.717 1291.4 755.956 1258.91 738.191 1258.48 737.97 1258.05 737.765 1257.61 737.579 1257.16 737.41 1256.7 737.26 1256.24 737.128 1255.77 737.014 1255.3 736.92 1254.83 736.845 1254.35 736.788 1253.88 736.751 1253.4 736.733 1252.92 736.735 1252.44 736.756 1251.96 736.796 1251.48 736.855 1251.01 736.934 1250.54 737.031 1250.08 737.147 1249.62 737.282 1249.16 737.435 1248.71 737.607 1248.27 737.796 1247.84 738.003 1247.42 738.228 1247 738.469 1246.6 738.726 1246.2 739 1245.82 739.29 1245.45 739.594 1245.09 739.913 1244.75 740.246 1244.42 740.594 1244.1 740.953 1243.8 741.326 1243.51 741.71 1243.24 742.106 1242.98 742.512 1242.74 742.928 1242.52 743.354 1242.32 743.788 1242.13 744.229 1241.96 744.678 1241.81 745.134 1241.68 745.595 1241.57 746.061 1241.47 746.531 1241.4 747.005 1241.34 747.481 1241.3 747.959 1241.29 748.439 1241.29 748.918 1241.31 749.398 1241.35 749.876 1241.41 750.352 1241.49 750.825 1241.58 751.294 1241.7 751.76 1241.84 752.22 1241.99 752.674 1242.16 753.122 1242.35 753.563 1242.56 753.996 1242.78 754.42 1243.02 754.834 1243.28 755.239 1243.55 755.633 1243.84 756.015 1244.15 756.386 1244.47 756.744 1244.8 757.089 1245.15 757.42 1245.51 757.737 1245.88 758.039 1246.26 758.326 1246.66 758.597 1247.07 758.852 1247.48 759.091 1309.81 793.165 1309.15 793.12 1308.48 793.094 1307.81 793.088 1307.14 793.102 1306.48 793.136 1305.81 793.19 1305.15 793.263 1304.49 793.356 1303.83 793.469 1303.17 793.601 1302.52 793.752 1301.88 793.922 1301.24 794.112 1300.6 794.32 1299.97 794.548 1299.35 794.794 1298.74 795.058 1298.14 795.34 1297.54 795.64 1296.95 795.957 1296.37 796.292 1295.81 796.644 1295.25 797.012 1294.7 797.397 1294.17 797.798 1293.65 798.215 1293.14 798.646 1292.64 799.093 1292.16 799.554 1291.69 800.03 1291.24 800.519 1290.8 801.021 1290.37 801.536 1289.96 802.064 1289.57 802.603 1289.19 803.154 1288.83 803.716 1288.49 804.288 1288.16 804.87 1287.85 805.462 1287.56 806.063 1287.28 806.672 1287.03 807.288 1286.86 807.736 1286.71 808.191 1286.58 808.651 1286.47 809.115 1286.37 809.584 1286.3 810.056 1286.24 810.531 1286.2 811.008 1286.19 811.486 1286.19 811.964 1286.21 812.442 1286.25 812.918 1286.3 813.393 1286.38 813.865 1286.48 814.333 1286.59 814.798 1286.73 815.257 1286.88 815.711 1287.05 816.158 1287.23 816.598 1287.44 817.03 1287.66 817.454 1287.9 817.868 1288.15 818.273 1288.42 818.667 1288.71 819.05 1289.01 819.421 1289.33 819.78 1289.66 820.126 1290 820.458 1290.36 820.777 1290.73 821.08 1291.11 821.37 1291.5 821.643 1291.9 821.9 1292.32 822.141 1292.74 822.366 1293.17 822.573 1293.61 822.763 1294.06 822.935 1294.51 823.089 1294.97 823.226 1295.43 823.343 1295.9 823.442 1296.37 823.522 1296.84 823.583 1297.32 823.626 1297.8 823.649 1298.28 823.653 1298.75 823.638 1299.23 823.604 1299.71 823.55 1300.18 823.478 1300.65 823.387 1301.11 823.277 1301.57 823.149 1302.03 823.002 1302.48 822.837 1302.92 822.655 1303.35 822.454 1303.78 822.237 1304.2 822.003 1304.6 821.752 1305 821.485 1305.39 821.203 1305.76 820.906 1306.12 820.593 1306.53 820.239 1306.95 819.901 1307.39 819.579 1307.84 819.273 1308.29 818.984 1308.76 818.712 1309.24 818.458 1309.72 818.222 1310.22 818.004 1310.72 817.805 1311.23 817.624 1311.75 817.463 1312.27 817.322 1312.8 817.2 1313.33 817.097 1313.86 817.015 1314.4 816.952 1314.94 816.91 1315.48 816.888 1316.02 816.886 1316.56 816.904 1317.1 816.942 1317.64 817.001 1318.17 817.079 1318.7 817.177 1319.23 817.296 1319.75 817.433 1320.27 817.59 1320.78 817.767 1321.29 817.962 1321.78 818.176 1322.27 818.409 1322.75 818.659 1326.9 820.928 1327.83 821.426 1328.77 821.906 1329.72 822.369 1330.68 822.814 1331.65 823.241 1332.62 823.65 1333.6 824.041 1334.59 824.413 1335.58 824.767 1336.58 825.103 1337.59 825.419 1338.61 825.717 1339.62 825.995 1340.65 826.255 1341.68 826.496 1342.71 826.717 1343.75 826.919 1344.79 827.101 1345.83 827.265 1346.88 827.408 1347.93 827.532 1348.98 827.637 1350.03 827.722 1351.08 827.787 1352.14 827.833 1353.19 827.858 1354.25 827.865 1355.31 827.851 1356.36 827.818 1357.42 827.765 1358.47 827.692 1359.52 827.6 1360.57 827.488 1361.62 827.357 1362.67 827.206 1363.71 827.035 1364.75 826.845 1365.78 826.636 1366.81 826.407 1367.84 826.16 1368.86 825.893 1369.88 825.607 1370.89 825.302 1371.9 824.979 1372.89 824.637 1373.89 824.276 1374.87 823.896 1375.85 823.499 1376.82 823.083 1377.41 822.837 1378 822.608 1378.6 822.4 1379.21 822.209 1379.82 822.038 1380.44 821.887 1381.06 821.755 1381.69 821.643 1382.32 821.55 1382.95 821.477 1383.58 821.425 1384.22 821.392 1384.85 821.379 1385.49 821.387 1386.12 821.414 1386.76 821.462 1387.39 821.529 1388.02 821.616 1388.65 821.723 1389.27 821.85 1389.89 821.997 1390.5 822.162 1391.11 822.348 1391.71 822.552 1392.31 822.775 1392.9 823.016 1393.48 823.277 1394.05 823.555 1394.61 823.851 1405.18 829.631Z" fill="#FFFFFF"/><path d="M1407.94 748.068 1407.5 747.189 1407.04 746.32 1406.56 745.46 1406.07 744.609 1405.56 743.77 1405.03 742.94 1404.49 742.123 1403.93 741.316 1403.35 740.521 1402.75 739.738 1402.14 738.967 1401.52 738.209 1400.88 737.464 1400.22 736.733 1399.55 736.015 1398.86 735.311 1398.16 734.621 1397.45 733.946 1396.72 733.286 1395.98 732.641 1395.22 732.01 1394.46 731.396 1393.68 730.798 1392.89 730.216 1392.08 729.65 1391.27 729.101 1390.44 728.569 1389.6 728.054 1388.76 727.556 1387.9 727.076M1247.48 759.09 1322.58 800.146M1258.91 738.191 1324.04 773.798M1338.7 700.178 1387.9 727.077M1318.33 716.193 1346.97 731.849M1302.87 734.982 1335.51 752.825M1326.89 820.927 1322.75 818.659M1394.61 823.851 1405.18 829.632M1425.8 766.786 1436.38 772.566M1258.9 738.19 1258.48 737.969 1258.05 737.764 1257.6 737.578 1257.15 737.409 1256.7 737.258 1256.24 737.127 1255.77 737.013 1255.3 736.919 1254.83 736.843 1254.35 736.787 1253.87 736.75 1253.39 736.732 1252.91 736.734 1252.44 736.755 1251.96 736.795 1251.48 736.854 1251.01 736.932 1250.54 737.03 1250.07 737.146 1249.61 737.281 1249.16 737.434 1248.71 737.606 1248.27 737.795 1247.84 738.002 1247.41 738.227 1247 738.468 1246.59 738.725 1246.2 738.999 1245.82 739.288 1245.45 739.593 1245.09 739.912 1244.74 740.245 1244.41 740.592 1244.1 740.952 1243.79 741.325 1243.51 741.709 1243.24 742.105 1242.98 742.511 1242.74 742.927 1242.52 743.352 1242.32 743.787 1242.13 744.228 1241.96 744.677 1241.81 745.133 1241.68 745.594 1241.57 746.06 1241.47 746.53 1241.4 747.004 1241.34 747.48 1241.3 747.958 1241.28 748.438 1241.29 748.917 1241.31 749.396 1241.35 749.874 1241.41 750.351 1241.48 750.824 1241.58 751.293 1241.7 751.759 1241.83 752.219 1241.99 752.673 1242.16 753.121 1242.35 753.562 1242.55 753.994 1242.78 754.419 1243.02 754.833 1243.28 755.238 1243.55 755.631 1243.84 756.014 1244.15 756.385 1244.46 756.743 1244.8 757.088 1245.14 757.419 1245.5 757.735 1245.88 758.038 1246.26 758.325 1246.66 758.596 1247.06 758.851 1247.48 759.089M1376.82 823.081 1375.85 823.496 1374.87 823.894 1373.88 824.273 1372.89 824.634 1371.89 824.976 1370.89 825.3 1369.87 825.605 1368.86 825.891 1367.84 826.157 1366.81 826.405 1365.78 826.633 1364.74 826.843 1363.7 827.033 1362.66 827.203 1361.62 827.354 1360.57 827.486 1359.52 827.597 1358.47 827.69 1357.41 827.762 1356.36 827.815 1355.3 827.849 1354.24 827.862 1353.19 827.856 1352.13 827.83 1351.08 827.785 1350.02 827.719 1348.97 827.634 1347.92 827.53 1346.87 827.406 1345.82 827.262 1344.78 827.099 1343.74 826.916 1342.7 826.714 1341.67 826.493 1340.64 826.252 1339.62 825.993 1338.6 825.714 1337.59 825.416 1336.58 825.1 1335.58 824.765 1334.58 824.411 1333.59 824.039 1332.61 823.648 1331.64 823.239 1330.67 822.811 1329.72 822.366 1328.77 821.904 1327.83 821.423 1326.89 820.925M1287.02 807.285 1286.85 807.733 1286.7 808.187 1286.57 808.647 1286.46 809.112 1286.37 809.581 1286.29 810.053 1286.23 810.528 1286.2 811.004 1286.18 811.482 1286.18 811.961 1286.2 812.439 1286.24 812.915 1286.3 813.39 1286.37 813.862 1286.47 814.33 1286.59 814.795 1286.72 815.254 1286.87 815.707 1287.04 816.155 1287.23 816.594 1287.43 817.027 1287.65 817.45 1287.89 817.865 1288.15 818.27 1288.42 818.664 1288.7 819.047 1289.01 819.418 1289.32 819.777 1289.65 820.123 1290 820.455 1290.35 820.773 1290.72 821.077 1291.1 821.366 1291.49 821.639 1291.9 821.897 1292.31 822.138 1292.73 822.363 1293.16 822.57 1293.6 822.76 1294.05 822.932 1294.5 823.086 1294.96 823.222 1295.42 823.34 1295.89 823.439 1296.36 823.519 1296.84 823.58 1297.31 823.622 1297.79 823.645 1298.27 823.649 1298.75 823.635 1299.22 823.6 1299.7 823.547 1300.17 823.475 1300.64 823.383 1301.11 823.274 1301.57 823.146 1302.02 822.999 1302.47 822.834 1302.91 822.651 1303.35 822.451 1303.77 822.234 1304.19 822 1304.6 821.749 1305 821.482 1305.38 821.2 1305.76 820.902 1306.12 820.59M1302.87 734.978 1302.44 734.755 1302 734.55 1301.56 734.363 1301.11 734.193 1300.65 734.042 1300.19 733.91 1299.72 733.797 1299.25 733.702 1298.78 733.626 1298.3 733.57 1297.82 733.532 1297.34 733.514 1296.85 733.516 1296.37 733.537 1295.89 733.577 1295.42 733.637 1294.94 733.716 1294.47 733.813 1294 733.93 1293.54 734.065 1293.09 734.219 1292.64 734.391 1292.19 734.581 1291.76 734.789 1291.33 735.014 1290.92 735.256 1290.51 735.515 1290.12 735.789 1289.73 736.08 1289.36 736.386 1289 736.706 1288.65 737.041 1288.32 737.388 1288 737.75 1287.7 738.124 1287.41 738.51 1287.14 738.907 1286.88 739.314 1286.65 739.732 1286.42 740.159 1286.22 740.594 1286.03 741.038 1285.86 741.489 1285.71 741.945 1285.58 742.409 1285.46 742.876 1285.37 743.348 1285.29 743.823 1285.24 744.301 1285.2 744.781 1285.18 745.262 1285.18 745.744 1285.2 746.224 1285.25 746.704 1285.3 747.182 1285.38 747.657 1285.48 748.128 1285.6 748.595 1285.73 749.057 1285.89 749.513 1286.06 749.963 1286.25 750.405 1286.46 750.839 1286.68 751.265 1286.92 751.681 1287.18 752.087 1287.46 752.482 1287.75 752.866 1288.05 753.238 1288.37 753.597 1288.71 753.943 1289.06 754.276 1289.42 754.594 1289.79 754.897 1290.18 755.185 1290.57 755.457 1290.98 755.714 1291.4 755.953M1306.87 737.164 1306.45 736.925 1306.04 736.668 1305.64 736.396 1305.26 736.108 1304.88 735.805 1304.52 735.487 1304.17 735.155 1303.84 734.808 1303.52 734.45 1303.21 734.078 1302.92 733.693 1302.65 733.298 1302.39 732.892 1302.15 732.476 1301.92 732.051 1301.72 731.616 1301.53 731.174 1301.35 730.725 1301.2 730.269 1301.06 729.806 1300.95 729.34 1300.85 728.868 1300.77 728.393 1300.71 727.915 1300.67 727.436 1300.65 726.955 1300.65 726.474 1300.67 725.993 1300.7 725.512 1300.76 725.035 1300.84 724.559 1300.93 724.087 1301.04 723.62 1301.18 723.157 1301.33 722.7 1301.5 722.249 1301.68 721.806 1301.89 721.37 1302.11 720.943 1302.35 720.525 1302.61 720.117 1302.88 719.721 1303.17 719.335 1303.47 718.961 1303.79 718.6 1304.12 718.252 1304.47 717.917 1304.83 717.597 1305.2 717.291 1305.58 717.001 1305.98 716.726 1306.38 716.467 1306.8 716.225 1307.23 716 1307.66 715.792 1308.1 715.602 1308.55 715.43 1309.01 715.276 1309.47 715.141 1309.94 715.024 1310.41 714.927 1310.88 714.848 1311.36 714.788 1311.84 714.748 1312.32 714.727 1312.8 714.726 1313.28 714.743 1313.76 714.78 1314.24 714.837 1314.72 714.913 1315.19 715.008 1315.66 715.121 1316.12 715.254 1316.58 715.405 1317.03 715.574 1317.47 715.761 1317.91 715.966 1318.33 716.189M1322.74 818.653 1322.26 818.402 1321.78 818.17 1321.28 817.956 1320.78 817.761 1320.26 817.584 1319.75 817.427 1319.22 817.289 1318.7 817.171 1318.16 817.073 1317.63 816.994 1317.09 816.936 1316.55 816.898 1316.01 816.88 1315.47 816.882 1314.93 816.904 1314.39 816.946 1313.85 817.009 1313.32 817.091 1312.79 817.194 1312.26 817.315 1311.74 817.457 1311.22 817.618 1310.71 817.799 1310.21 817.998 1309.72 818.216 1309.23 818.452 1308.75 818.706 1308.28 818.977 1307.83 819.267 1307.38 819.573 1306.95 819.895 1306.53 820.233 1306.12 820.587M1287.02 807.282 1287.28 806.665 1287.55 806.056 1287.84 805.456 1288.15 804.864 1288.48 804.282 1288.82 803.71 1289.18 803.148 1289.56 802.597 1289.95 802.058 1290.36 801.53 1290.79 801.015 1291.23 800.513 1291.68 800.024 1292.15 799.548 1292.64 799.087 1293.13 798.64 1293.64 798.209 1294.16 797.792 1294.7 797.391 1295.24 797.006 1295.8 796.638 1296.37 796.286 1296.94 795.951 1297.53 795.634 1298.13 795.334 1298.73 795.051 1299.35 794.787 1299.97 794.542 1300.6 794.314 1301.23 794.106 1301.87 793.916 1302.52 793.746 1303.17 793.594 1303.82 793.462 1304.48 793.35 1305.14 793.257 1305.8 793.184 1306.47 793.13 1307.14 793.096 1307.8 793.082 1308.47 793.088 1309.14 793.114 1309.8 793.159M1394.6 823.845 1394.04 823.549 1393.47 823.27 1392.89 823.01 1392.3 822.769 1391.7 822.546 1391.1 822.341 1390.49 822.156 1389.88 821.99 1389.26 821.844 1388.64 821.717 1388.01 821.61 1387.38 821.523 1386.75 821.456 1386.12 821.408 1385.48 821.381 1384.84 821.373 1384.21 821.386 1383.57 821.419 1382.94 821.471 1382.31 821.544 1381.68 821.636 1381.05 821.749 1380.43 821.88 1379.81 822.032 1379.2 822.203 1378.6 822.393 1378 822.602 1377.4 822.83 1376.82 823.077M1425.8 766.78 1425.01 766.336 1424.23 765.877 1423.46 765.4 1422.7 764.908 1421.95 764.398 1421.21 763.874 1420.48 763.333 1419.76 762.778 1419.06 762.207 1418.37 761.621 1417.69 761.021 1417.02 760.407 1416.37 759.779 1415.73 759.136 1415.1 758.48 1414.49 757.812 1413.89 757.13 1413.31 756.436 1412.74 755.729 1412.19 755.011 1411.65 754.281 1411.13 753.539 1410.62 752.787 1410.13 752.024 1409.66 751.252 1409.2 750.469 1408.76 749.676 1408.34 748.874 1407.93 748.064M1322.58 800.14 1323.29 800.539 1323.98 800.954 1324.67 801.386 1325.35 801.835 1326.02 802.299 1326.67 802.78 1327.32 803.276 1327.95 803.787 1328.57 804.313 1329.18 804.854 1329.77 805.41 1330.35 805.979 1330.92 806.563 1331.47 807.159 1332.01 807.769 1332.53 808.392 1333.06 809.024 1333.6 809.643 1334.16 810.25 1334.73 810.843 1335.32 811.423 1335.92 811.989 1336.53 812.541 1337.16 813.078 1337.8 813.601 1338.45 814.109 1339.11 814.601 1339.78 815.078 1340.47 815.539M1327.27 721.074 1326.85 720.835 1326.45 720.58 1326.05 720.308 1325.67 720.022 1325.29 719.72 1324.94 719.403 1324.59 719.072 1324.25 718.726 1323.94 718.368 1323.63 717.998 1323.34 717.615 1323.07 717.222 1322.81 716.817 1322.57 716.402 1322.34 715.979 1322.14 715.546 1321.95 715.105 1321.78 714.658 1321.62 714.203 1321.49 713.742 1321.37 713.277 1321.28 712.807 1321.2 712.334 1321.14 711.858 1321.1 711.381 1321.08 710.901 1321.07 710.422 1321.09 709.943 1321.13 709.464 1321.19 708.988 1321.26 708.514 1321.36 708.044 1321.47 707.578 1321.6 707.117 1321.75 706.661 1321.92 706.212 1322.11 705.771 1322.31 705.337 1322.53 704.911 1322.77 704.495 1323.03 704.089 1323.3 703.693 1323.58 703.309 1323.89 702.936 1324.2 702.577 1324.53 702.229 1324.88 701.896 1325.24 701.577 1325.61 701.273 1325.99 700.983 1326.38 700.709 1326.79 700.451 1327.2 700.211 1327.63 699.986 1328.06 699.78 1328.5 699.59 1328.95 699.418 1329.4 699.265 1329.86 699.13 1330.33 699.014 1330.8 698.916 1331.27 698.838 1331.75 698.779 1332.23 698.738 1332.7 698.718 1333.18 698.716 1333.66 698.734 1334.14 698.771 1334.62 698.827 1335.09 698.903 1335.56 698.998 1336.03 699.11 1336.49 699.243 1336.94 699.393 1337.39 699.562 1337.84 699.748 1338.27 699.953 1338.69 700.174" stroke="#000000" stroke-width="3.02495" stroke-linecap="round" stroke-linejoin="round" fill="none"/></g></g></g></g></svg>