<svg width="59" height="60" xmlns="http://www.w3.org/2000/svg" xmlns:xlink="http://www.w3.org/1999/xlink" overflow="hidden"><defs><clipPath id="clip0"><rect x="1690" y="547" width="59" height="60"/></clipPath><clipPath id="clip1"><rect x="1690" y="548" width="59" height="58"/></clipPath><clipPath id="clip2"><rect x="1690" y="548" width="59" height="58"/></clipPath><clipPath id="clip3"><rect x="1690" y="548" width="59" height="58"/></clipPath></defs><g clip-path="url(#clip0)" transform="translate(-1690 -547)"><g clip-path="url(#clip1)"><g clip-path="url(#clip2)"><g clip-path="url(#clip3)"><path d="M28.9803 0C28.9953 0 29.0102 0 29.0252 0.000786675 30.4664 0.00708007 31.7754 0.59866 32.7249 1.54818 33.6784 2.50163 34.2692 3.8201 34.2699 5.27309L34.2731 5.27309 34.2731 23.7269 52.7269 23.7269C54.1775 23.7269 55.496 24.3201 56.4518 25.2751 57.4021 26.2262 57.9945 27.5368 58 28.9803 58 28.9953 58 29.0102 58 29.0252 57.9929 30.4664 57.4013 31.7746 56.4518 32.7249 55.4984 33.6784 54.1799 34.2692 52.7269 34.2692L52.7269 34.2731 34.2731 34.2731 34.2731 52.7269C34.2731 54.1775 33.6799 55.4968 32.7249 56.4518 31.7738 57.4021 30.4632 57.9945 29.0197 57.9992 29.0047 58 28.9898 58 28.9748 57.9992 27.5336 57.9929 26.2246 57.4013 25.2751 56.4518 24.3224 55.4984 23.7309 54.1799 23.7309 52.7269L23.7269 52.7269 23.7269 34.2731 5.27309 34.2731C3.82246 34.2731 2.50399 33.6799 1.54818 32.7249 0.597873 31.7738 0.00550674 30.4632 0.000786675 29.0197 0 29.0047 0 28.9898 0.000786675 28.9748 0.00708007 27.5336 0.59866 26.2246 1.54818 25.2751 2.50163 24.3216 3.8201 23.7309 5.27309 23.7309L5.27309 23.7269 23.7269 23.7269 23.7269 5.27309C23.7269 3.82246 24.3201 2.5032 25.2751 1.54818 26.2262 0.597087 27.5368 0.00550674 28.9803 0" fill="#FFFFFF" transform="matrix(1.01724 0 0 1 1690 548)"/></g></g></g></g></svg>