<svg width="118" height="95" xmlns="http://www.w3.org/2000/svg" xmlns:xlink="http://www.w3.org/1999/xlink" overflow="hidden"><defs><clipPath id="clip0"><rect x="295" y="855" width="118" height="95"/></clipPath><clipPath id="clip1"><rect x="296" y="856" width="116" height="93"/></clipPath><clipPath id="clip2"><rect x="296" y="856" width="116" height="93"/></clipPath><clipPath id="clip3"><rect x="296" y="856" width="116" height="93"/></clipPath><clipPath id="clip4"><rect x="296" y="856" width="116" height="93"/></clipPath></defs><g clip-path="url(#clip0)" transform="translate(-295 -855)"><g clip-path="url(#clip1)"><g clip-path="url(#clip2)"><g clip-path="url(#clip3)"><g clip-path="url(#clip4)"><path d="M108.124 44.2778 30.6592 89.0077C27.4144 85.5806 22.3639 84.2267 17.7645 85.5806L3.96791 61.5932C7.39401 58.256 8.74688 53.2053 7.39401 48.6966L84.8563 3.87928C88.1935 7.39504 93.1544 8.74894 97.753 7.39504L111.639 31.3836C108.124 34.6284 106.86 39.6791 108.124 44.2778ZM115.608 32.1955 99.1067 3.60953C94.4156 6.31321 88.3731 4.69059 85.6679 0.00102762L3.51704 47.3463C6.31218 52.0348 4.68956 58.0772 -4.56357e-16 60.7824L16.5021 89.3684C21.1917 86.6632 27.1447 88.2868 29.8499 92.9753L112.001 45.5428C109.296 40.8542 110.919 34.8118 115.608 32.1965" fill="#15A9E9" transform="matrix(1.00339 0 0 1 296 856.013)"/></g><path d="M96.0392 33.277 93.5138 28.8583 95.7695 27.5069 98.3848 31.9232ZM100.91 36.4344 103.523 40.8532 101.27 42.2045 98.6545 37.6958ZM90.8985 24.3488 88.3731 19.9303 90.6288 18.5774 93.1542 22.9972ZM85.7578 15.4213 83.2324 11.0028 85.4881 9.64991 88.0135 14.1589ZM85.2183 48.2462 76.7404 33.4561 73.8554 35.0798 72.4115 32.6443 80.7995 27.7759 82.2408 30.2088 79.4456 31.8325 88.0135 46.7125ZM74.1277 54.7382 64.1161 37.4253 71.5124 33.0964 72.9536 35.6218 68.2651 38.327 71.0602 43.1055 74.7571 40.9398 76.2009 43.4677 72.5015 45.6309 75.3891 50.6791 80.0776 47.9739 81.5214 50.4093ZM70.0686 56.9913 63.3967 51.6733 63.4841 53.7466 66.5515 58.9772 63.8463 60.6008 53.8347 43.2853 56.6324 41.7516 60.9612 49.2379 60.1469 39.6784 62.8546 38.1446 63.574 47.9739 72.8637 55.3702ZM58.2535 64.1153C55.6382 65.649 53.2952 64.8372 51.6715 62.042L46.5308 53.1146C44.9072 50.3194 45.3593 47.9739 48.0646 46.4427 50.7698 44.8191 53.0229 45.6309 54.6465 48.426L55.5508 50.0497 53.0229 51.5834 51.9413 49.6874C51.2219 48.5159 50.4101 48.3361 49.5084 48.7857 48.6966 49.3278 48.4268 50.1396 49.1461 51.3111L54.5566 60.6907C55.2785 61.9521 56.0004 62.042 56.9021 61.5 57.8039 61.0504 58.0736 60.3311 57.3543 59.0671L55.9105 56.5417 58.5258 55.0979 59.7872 57.3535C61.4108 60.1487 60.9612 62.5841 58.2535 64.1153ZM49.5983 68.8064 39.5867 51.4909 42.3844 49.9572 52.3934 67.2727ZM42.834 72.6831 34.3561 57.8956 31.471 59.5192 30.0298 57.0838 38.4152 52.2128 39.859 54.6483 37.0638 56.3619 45.6291 71.1519ZM29.9398 83.0544 27.4144 78.6356 29.6675 77.3742 32.1929 81.793ZM24.8888 74.2168 22.3639 69.888 24.5286 68.6266 27.1447 72.9554ZM19.8391 65.4692 17.3142 61.0504 19.4786 59.789 22.0035 64.2078ZM14.6989 56.6316 12.174 52.3027 14.4289 51.0413 16.9537 55.3702ZM38.2353 38.5069 40.7607 40.1305 43.4659 38.9565 42.6541 41.8441 44.5475 44.0972 41.5725 44.277 40.0388 46.7125 39.0472 44.0072 36.1621 43.1954 38.5051 41.3919ZM49.4185 32.0123C50.2303 32.5544 51.0421 33.0964 51.8514 33.6359 52.8456 33.2763 53.7448 32.914 54.6465 32.5544 54.3767 33.4561 54.107 34.4478 53.8347 35.4394 54.4667 36.1613 55.0986 36.8832 55.7306 37.6951 54.739 37.6951 53.7448 37.6951 52.7531 37.785 52.2136 38.5968 51.6715 39.4086 51.2219 40.3104 50.8597 39.4086 50.5 38.417 50.1378 37.5152 49.236 37.2429 48.2444 37.0631 47.3427 36.7933 48.0646 36.1613 48.8764 35.6218 49.5983 34.9898 49.5983 33.9982 49.5084 33.0065 49.4185 32.0123ZM60.599 25.6105 63.0345 27.2338 65.8296 26.0624 65.0178 28.9474 66.9112 31.2005 63.9362 31.293 62.4025 33.8183 61.3209 31.0206 58.4359 30.3013 60.8688 28.4978ZM84.4964 7.66531 10.8209 50.2295C11.3622 54.3785 10.1899 58.6149 7.66505 61.9521L19.298 82.1527C23.4468 81.6106 27.6842 82.7821 31.0214 85.3075L104.787 42.7458C104.245 38.5968 105.326 34.3578 107.942 31.0206L96.219 10.8224C92.0726 11.3622 87.8336 10.1912 84.4964 7.66531" fill="#15A9E9" transform="matrix(1.00339 0 0 1 296 856.013)"/></g></g></g></g></svg>